<svg xmlns="http://www.w3.org/2000/svg" width="2400" height="1780" viewBox="0 0 2400 1780">
  <defs>
    <style>
      .bg { fill: #f6f1ee; }
      .phone { fill: #fbfaf8; stroke: #d8cec7; stroke-width: 3; }
      .screen { fill: #f4efeb; }
      .card { fill: #fffaf4; stroke: #e5dbd3; stroke-width: 2; }
      .glass { fill: #ffffff; opacity: .78; stroke: #eadfd8; stroke-width: 2; }
      .wine { fill: #8b2f45; }
      .wine-stroke { stroke: #8b2f45; }
      .gold { fill: #c79259; }
      .blue { fill: #b9d5e8; }
      .green { fill: #6f8f7a; }
      .muted { fill: #8a817c; }
      .text { fill: #342f2d; font-family: -apple-system, BlinkMacSystemFont, "Hiragino Sans", "Noto Sans JP", sans-serif; }
      .serif { font-family: "Hiragino Mincho ProN", "Noto Serif JP", serif; }
      .title { font-size: 28px; font-weight: 700; }
      .screen-title { font-size: 22px; font-weight: 700; }
      .label { font-size: 15px; font-weight: 600; }
      .small { font-size: 13px; }
      .tiny { font-size: 11px; }
      .line { stroke: #d7ccc5; stroke-width: 2; stroke-linecap: round; }
      .soft-line { stroke: #e7ddd7; stroke-width: 2; stroke-linecap: round; }
      .chip { fill: #f1e4df; }
      .tab { fill: #fff; stroke: #e6ddd7; stroke-width: 2; }
    </style>
  </defs>

  <rect class="bg" width="2400" height="1780"/>
  <text x="80" y="74" class="text title">favoreco 現状ページラフ</text>
  <text x="80" y="108" class="text small muted">コードから読める実装済み画面を、実機確認前の構造ラフとして整理。白ベース、リキッドグラス、ワインレッド/シャンパン差し色。</text>

  <!-- reusable phone outline size: 320x560 -->

  <!-- 1 Onboarding -->
  <g transform="translate(80 150)">
    <rect class="phone" x="0" y="0" rx="46" ry="46" width="320" height="560"/>
    <rect class="screen" x="18" y="24" rx="32" ry="32" width="284" height="512"/>
    <text x="38" y="62" class="text screen-title">初期設定</text>
    <rect class="glass" x="34" y="92" rx="12" width="252" height="86"/>
    <text x="50" y="122" class="text label">記録したいジャンル</text>
    <text x="50" y="148" class="text small muted">あとから設定で変更可能</text>
    <g transform="translate(34 204)">
      <text x="0" y="0" class="text label muted">ジャンル</text>
      <g transform="translate(0 22)">
        <rect class="card" x="0" y="0" rx="10" width="252" height="42"/><circle cx="24" cy="21" r="10" class="wine"/><text x="45" y="27" class="text small">観劇</text><text x="220" y="27" class="text small wine">✓</text>
        <rect class="card" x="0" y="52" rx="10" width="252" height="42"/><circle cx="24" cy="73" r="10" class="blue"/><text x="45" y="79" class="text small">美術展</text><text x="220" y="79" class="text small wine">✓</text>
        <rect class="card" x="0" y="104" rx="10" width="252" height="42"/><circle cx="24" cy="125" r="10" class="gold"/><text x="45" y="131" class="text small">映画</text><text x="220" y="131" class="text small wine">✓</text>
        <rect class="card" x="0" y="156" rx="10" width="252" height="42"/><circle cx="24" cy="177" r="10" class="green"/><text x="45" y="183" class="text small">酒</text><text x="220" y="183" class="text small wine">✓</text>
      </g>
    </g>
    <rect x="194" y="484" rx="14" width="84" height="34" class="wine"/>
    <text x="220" y="506" class="text small" fill="#fff">開始</text>
    <text x="0" y="600" class="text label">1. 初回ジャンル選択</text>
  </g>

  <!-- 2 Home -->
  <g transform="translate(440 150)">
    <rect class="phone" x="0" y="0" rx="46" ry="46" width="320" height="560"/>
    <rect class="screen" x="18" y="24" rx="32" ry="32" width="284" height="512"/>
    <text x="38" y="62" class="text screen-title">favoreco</text>
    <circle cx="272" cy="54" r="13" fill="#e8ddd6"/>
    <rect class="glass" x="34" y="88" rx="12" width="252" height="110"/>
    <text x="52" y="120" class="text title serif">favoreco</text>
    <text x="52" y="148" class="text small">観た・行った・体験したを、</text>
    <text x="52" y="174" class="text label serif">美しく一生残す。</text>
    <g transform="translate(34 212)">
      <rect class="card" x="0" y="0" rx="10" width="76" height="54"/><text x="30" y="25" class="text label wine">2</text><text x="12" y="42" class="text tiny muted">今後の予定</text>
      <rect class="card" x="88" y="0" rx="10" width="76" height="54"/><text x="118" y="25" class="text label wine">8</text><text x="104" y="42" class="text tiny muted">今年の記録</text>
      <rect class="card" x="176" y="0" rx="10" width="76" height="54"/><text x="206" y="25" class="text label wine">24</text><text x="196" y="42" class="text tiny muted">総記録数</text>
    </g>
    <text x="34" y="298" class="text label">アテンション</text>
    <rect class="card" x="34" y="312" rx="10" width="252" height="46"/>
    <circle cx="58" cy="335" r="10" class="wine"/><text x="78" y="331" class="text small">次の予定</text><text x="78" y="349" class="text tiny muted">2026年7月...</text>
    <text x="34" y="386" class="text label">体験ギャラリー</text>
    <rect class="card" x="34" y="400" rx="10" width="88" height="86"/><rect x="46" y="412" rx="8" width="64" height="40" class="wine"/><text x="46" y="472" class="text tiny">舞台</text>
    <rect class="card" x="132" y="400" rx="10" width="88" height="86"/><rect x="144" y="412" rx="8" width="64" height="40" class="blue"/><text x="144" y="472" class="text tiny">美術展</text>
    <rect class="card" x="230" y="400" rx="10" width="56" height="86"/><rect x="240" y="412" rx="8" width="36" height="40" class="gold"/>
    <rect class="tab" x="18" y="498" rx="22" width="284" height="38"/>
    <text x="44" y="522" class="text tiny wine">Home</text><text x="108" y="522" class="text tiny muted">記録</text><circle cx="160" cy="504" r="21" class="wine"/><text x="154" y="511" class="text label" fill="#fff">+</text><text x="204" y="522" class="text tiny muted">カレンダー</text>
    <text x="0" y="600" class="text label">2. Home</text>
  </g>

  <!-- 3 Records -->
  <g transform="translate(800 150)">
    <rect class="phone" x="0" y="0" rx="46" ry="46" width="320" height="560"/>
    <rect class="screen" x="18" y="24" rx="32" ry="32" width="284" height="512"/>
    <text x="38" y="62" class="text screen-title">記録</text>
    <g transform="translate(34 94)">
      <rect class="card" x="0" y="0" rx="12" width="252" height="78"/>
      <rect x="12" y="12" rx="8" width="54" height="54" class="wine"/><text x="78" y="28" class="text label">ミュージカル...</text><text x="78" y="50" class="text tiny muted">7/10 ・ 劇場 ・ ★4.5</text><text x="78" y="67" class="text tiny muted">出演 / ¥12,000</text>
      <rect class="card" x="0" y="94" rx="12" width="252" height="78"/>
      <rect x="12" y="106" rx="8" width="54" height="54" class="blue"/><text x="78" y="122" class="text label">企画展</text><text x="78" y="144" class="text tiny muted">美術館 ・ OCRあり</text><text x="78" y="161" class="text tiny muted">メモあり</text>
      <rect class="card" x="0" y="188" rx="12" width="252" height="78"/>
      <rect x="12" y="200" rx="8" width="54" height="54" class="gold"/><text x="78" y="216" class="text label">映画タイトル</text><text x="78" y="238" class="text tiny muted">映画館 ・ ★5.0</text>
    </g>
    <rect class="tab" x="18" y="498" rx="22" width="284" height="38"/>
    <text x="44" y="522" class="text tiny muted">Home</text><text x="108" y="522" class="text tiny wine">記録</text><circle cx="160" cy="504" r="21" class="wine"/><text x="154" y="511" class="text label" fill="#fff">+</text><text x="204" y="522" class="text tiny muted">カレンダー</text>
    <text x="0" y="600" class="text label">3. 記録一覧</text>
  </g>

  <!-- 4 Calendar/Stats -->
  <g transform="translate(1160 150)">
    <rect class="phone" x="0" y="0" rx="46" ry="46" width="320" height="560"/>
    <rect class="screen" x="18" y="24" rx="32" ry="32" width="284" height="512"/>
    <text x="38" y="62" class="text screen-title">カレンダー</text>
    <rect class="glass" x="34" y="100" rx="14" width="252" height="104"/>
    <circle cx="70" cy="137" r="18" fill="#e5ddd8"/>
    <text x="104" y="132" class="text label">カレンダーは準備中</text>
    <text x="104" y="154" class="text tiny muted">予定、申込、訪問済みを日付で表示</text>
    <text x="38" y="260" class="text screen-title">統計</text>
    <rect class="glass" x="34" y="292" rx="14" width="252" height="104"/>
    <circle cx="70" cy="329" r="18" fill="#e5ddd8"/>
    <text x="104" y="324" class="text label">統計は準備中</text>
    <text x="104" y="346" class="text tiny muted">回数、年間まとめ、支出、評価</text>
    <rect class="tab" x="18" y="498" rx="22" width="284" height="38"/>
    <text x="44" y="522" class="text tiny muted">Home</text><text x="108" y="522" class="text tiny muted">記録</text><circle cx="160" cy="504" r="21" class="wine"/><text x="154" y="511" class="text label" fill="#fff">+</text><text x="204" y="522" class="text tiny wine">カレンダー</text>
    <text x="0" y="600" class="text label">4. カレンダー / 統計</text>
  </g>

  <!-- 5 Add record -->
  <g transform="translate(1520 150)">
    <rect class="phone" x="0" y="0" rx="46" ry="46" width="320" height="560"/>
    <rect class="screen" x="18" y="24" rx="32" ry="32" width="284" height="512"/>
    <text x="38" y="62" class="text screen-title">記録を追加</text>
    <text x="250" y="62" class="text small wine">保存</text>
    <text x="34" y="104" class="text label muted">入力ユニット</text>
    <g transform="translate(34 124)">
      <rect class="card" x="0" y="0" rx="10" width="252" height="86"/><text x="14" y="26" class="text label">基本情報</text><text x="190" y="26" class="text tiny wine">必須</text><line x1="14" y1="44" x2="230" y2="44" class="soft-line"/><text x="14" y="66" class="text tiny muted">対象名 / 日付 / 場所 / 評価</text>
      <rect class="card" x="0" y="98" rx="10" width="252" height="42"/><text x="14" y="124" class="text small">人物・団体</text><text x="204" y="124" class="text tiny muted">任意</text>
      <rect class="card" x="0" y="150" rx="10" width="252" height="42"/><text x="14" y="176" class="text small">チケット・予定</text><text x="204" y="176" class="text tiny muted">任意</text>
      <rect class="card" x="0" y="202" rx="10" width="252" height="42"/><text x="14" y="228" class="text small">写真</text><text x="204" y="228" class="text tiny muted">任意</text>
      <rect class="card" x="0" y="254" rx="10" width="252" height="42"/><text x="14" y="280" class="text small">OCR・取込</text><text x="204" y="280" class="text tiny muted">任意</text>
      <rect class="card" x="0" y="306" rx="10" width="252" height="42"/><text x="14" y="332" class="text small">金額 / 公式情報 / メモ</text>
    </g>
    <text x="0" y="600" class="text label">5. 記録追加フォーム</text>
  </g>

  <!-- 6 Detail -->
  <g transform="translate(1880 150)">
    <rect class="phone" x="0" y="0" rx="46" ry="46" width="320" height="560"/>
    <rect class="screen" x="18" y="24" rx="32" ry="32" width="284" height="512"/>
    <text x="38" y="62" class="text screen-title">記録詳細</text>
    <text x="256" y="62" class="text small wine">編集</text>
    <rect class="glass" x="34" y="88" rx="12" width="252" height="94"/>
    <circle cx="62" cy="122" r="18" class="wine"/><text x="92" y="118" class="text label serif">ミュージカル...</text><text x="92" y="142" class="text small wine">観劇</text>
    <rect class="card" x="34" y="198" rx="12" width="252" height="88"/><text x="52" y="224" class="text label">写真</text><rect x="52" y="238" rx="8" width="70" height="36" class="wine"/><rect x="132" y="238" rx="8" width="70" height="36" class="blue"/>
    <rect class="card" x="34" y="300" rx="12" width="252" height="70"/><text x="52" y="326" class="text label">人物・団体</text><text x="52" y="350" class="text tiny muted">出演　山田 花子</text>
    <rect class="card" x="34" y="384" rx="12" width="252" height="84"/><text x="52" y="410" class="text label">基本情報</text><text x="52" y="434" class="text tiny muted">日付 / 場所 / 評価 / 金額</text><text x="52" y="452" class="text tiny muted">チケット状態 / 座席</text>
    <text x="0" y="600" class="text label">6. 記録詳細</text>
  </g>

  <!-- 7 Category -->
  <g transform="translate(80 860)">
    <rect class="phone" x="0" y="0" rx="46" ry="46" width="320" height="560"/>
    <rect class="screen" x="18" y="24" rx="32" ry="32" width="284" height="512"/>
    <text x="38" y="62" class="text screen-title">観劇 ▼</text>
    <text x="256" y="62" class="text small wine">＋</text>
    <rect class="glass" x="34" y="88" rx="12" width="252" height="124"/>
    <circle cx="64" cy="124" r="20" class="wine"/><text x="98" y="122" class="text label serif">観劇</text><text x="98" y="146" class="text tiny muted">このカテゴリに8件の記録</text>
    <rect x="52" y="166" rx="12" width="216" height="32" class="wine"/><text x="108" y="187" class="text small" fill="#fff">新しい対象を追加</text>
    <g transform="translate(34 232)">
      <rect class="card" x="0" y="0" rx="10" width="76" height="54"/><text x="28" y="25" class="text label">5</text><text x="24" y="42" class="text tiny muted">対象</text>
      <rect class="card" x="88" y="0" rx="10" width="76" height="54"/><text x="116" y="25" class="text label">8</text><text x="112" y="42" class="text tiny muted">記録</text>
      <rect class="card" x="176" y="0" rx="10" width="76" height="54"/><text x="204" y="25" class="text label">8</text><text x="198" y="42" class="text tiny muted">ユニット</text>
    </g>
    <text x="34" y="322" class="text label">対象</text>
    <rect class="card" x="34" y="338" rx="10" width="252" height="54"/><text x="52" y="362" class="text small">作品タイトル</text><text x="52" y="380" class="text tiny muted">3件 / 2026.7.10</text><text x="260" y="370" class="text label wine">＋</text>
    <text x="34" y="428" class="text label">最近の記録</text>
    <rect class="card" x="34" y="444" rx="10" width="252" height="56"/><text x="52" y="468" class="text small">観劇記録</text><text x="52" y="486" class="text tiny muted">劇場 ・ ★4.5</text>
    <text x="0" y="600" class="text label">7. カテゴリトップ</text>
  </g>

  <!-- 8 Settings -->
  <g transform="translate(440 860)">
    <rect class="phone" x="0" y="0" rx="46" ry="46" width="320" height="560"/>
    <rect class="screen" x="18" y="24" rx="32" ry="32" width="284" height="512"/>
    <text x="38" y="62" class="text screen-title">設定</text>
    <text x="246" y="62" class="text small wine">閉じる</text>
    <g transform="translate(34 92)">
      <text x="0" y="0" class="text tiny muted">マイ</text><rect class="card" x="0" y="10" rx="10" width="252" height="36"/><text x="16" y="33" class="text small">プロフィール</text>
      <text x="0" y="72" class="text tiny muted">表示</text><rect class="card" x="0" y="82" rx="10" width="252" height="36"/><text x="16" y="105" class="text small">表示設定</text>
      <text x="0" y="144" class="text tiny muted">ジャンル</text><rect class="card" x="0" y="154" rx="10" width="252" height="36"/><text x="16" y="177" class="text small">ジャンル管理</text>
      <text x="0" y="216" class="text tiny muted">記録・入力補助</text><rect class="card" x="0" y="226" rx="10" width="252" height="36"/><text x="16" y="249" class="text small">記録・入力補助</text>
      <text x="0" y="288" class="text tiny muted">データ管理</text><rect class="card" x="0" y="298" rx="10" width="252" height="36"/><text x="16" y="321" class="text small">データ管理 / CSV</text>
      <text x="0" y="360" class="text tiny muted">開発</text><rect class="card" x="0" y="370" rx="10" width="252" height="36"/><text x="16" y="393" class="text small">写真付き仮データを追加</text>
    </g>
    <text x="0" y="600" class="text label">8. 設定</text>
  </g>

  <!-- 9 Display settings -->
  <g transform="translate(800 860)">
    <rect class="phone" x="0" y="0" rx="46" ry="46" width="320" height="560"/>
    <rect class="screen" x="18" y="24" rx="32" ry="32" width="284" height="512"/>
    <text x="38" y="62" class="text screen-title">表示設定</text>
    <text x="34" y="102" class="text tiny muted">Home表示</text>
    <g transform="translate(34 118)">
      <rect class="card" x="0" y="0" rx="10" width="252" height="240"/>
      <text x="16" y="30" class="text small">アテンション</text><circle cx="220" cy="24" r="12" class="wine"/>
      <line x1="16" y1="48" x2="236" y2="48" class="soft-line"/>
      <text x="16" y="76" class="text small">体験ギャラリー</text><circle cx="220" cy="70" r="12" class="wine"/>
      <line x1="16" y1="94" x2="236" y2="94" class="soft-line"/>
      <text x="16" y="122" class="text small">あとで記録</text><circle cx="220" cy="116" r="12" class="wine"/>
      <line x1="16" y1="140" x2="236" y2="140" class="soft-line"/>
      <text x="16" y="168" class="text small">最近の記録</text><circle cx="220" cy="162" r="12" class="wine"/>
      <line x1="16" y1="186" x2="236" y2="186" class="soft-line"/>
      <text x="16" y="214" class="text small">統計サマリ / お気に入り</text><circle cx="220" cy="208" r="12" fill="#d8d0ca"/>
    </g>
    <rect class="card" x="34" y="390" rx="10" width="252" height="54"/><text x="52" y="414" class="text small">文字サイズ / 外観モード</text><text x="52" y="432" class="text tiny muted">後日実装</text>
    <text x="0" y="600" class="text label">9. 表示設定</text>
  </g>

  <!-- 10 Profile -->
  <g transform="translate(1160 860)">
    <rect class="phone" x="0" y="0" rx="46" ry="46" width="320" height="560"/>
    <rect class="screen" x="18" y="24" rx="32" ry="32" width="284" height="512"/>
    <text x="38" y="62" class="text screen-title">プロフィール</text>
    <text x="34" y="102" class="text tiny muted">プロフィール</text>
    <rect class="card" x="34" y="116" rx="10" width="252" height="74"/>
    <text x="52" y="142" class="text small">表示名　未設定</text><text x="52" y="166" class="text tiny muted">アイコンと表示名は次の実装</text>
    <rect class="card" x="34" y="218" rx="10" width="252" height="42"/><text x="52" y="244" class="text small wine">＋ SNSを追加</text>
    <text x="34" y="302" class="text tiny muted">SNS</text>
    <rect class="card" x="34" y="318" rx="10" width="252" height="58"/>
    <text x="52" y="342" class="text small">Instagram / X / Threads</text>
    <text x="52" y="360" class="text tiny muted">未登録時は空メッセージ</text>
    <text x="0" y="600" class="text label">10. プロフィール / SNS</text>
  </g>

  <!-- 11 Data management -->
  <g transform="translate(1520 860)">
    <rect class="phone" x="0" y="0" rx="46" ry="46" width="320" height="560"/>
    <rect class="screen" x="18" y="24" rx="32" ry="32" width="284" height="512"/>
    <text x="38" y="62" class="text screen-title">データ管理</text>
    <g transform="translate(34 94)">
      <text x="0" y="0" class="text tiny muted">保存データ</text>
      <rect class="card" x="0" y="12" rx="10" width="252" height="68"/><text x="16" y="38" class="text small">記録数 / 写真数</text><text x="16" y="60" class="text tiny muted">現在の保存状況</text>
      <text x="0" y="112" class="text tiny muted">エクスポート</text>
      <rect class="card" x="0" y="124" rx="10" width="252" height="42"/><text x="16" y="150" class="text small">CSVエクスポート</text>
      <rect class="card" x="0" y="176" rx="10" width="252" height="42"/><text x="16" y="202" class="text small muted">JSON / CSVインポート準備中</text>
      <text x="0" y="252" class="text tiny muted">削除</text>
      <rect class="card" x="0" y="264" rx="10" width="252" height="42"/><text x="16" y="290" class="text small">キャッシュ削除</text>
      <rect class="card" x="0" y="316" rx="10" width="252" height="42"/><text x="16" y="342" class="text small wine">全データ削除</text>
    </g>
    <text x="0" y="600" class="text label">11. データ管理 / CSV</text>
  </g>

  <!-- 12 Genre management -->
  <g transform="translate(1880 860)">
    <rect class="phone" x="0" y="0" rx="46" ry="46" width="320" height="560"/>
    <rect class="screen" x="18" y="24" rx="32" ry="32" width="284" height="512"/>
    <text x="38" y="62" class="text screen-title">ジャンル管理</text>
    <text x="248" y="62" class="text small wine">追加</text>
    <rect class="glass" x="34" y="90" rx="12" width="252" height="58"/><text x="52" y="116" class="text small">表示/非表示、並び替え</text><text x="52" y="134" class="text tiny muted">最後の1ジャンルは非表示不可</text>
    <g transform="translate(34 176)">
      <rect class="card" x="0" y="0" rx="10" width="252" height="46"/><circle cx="22" cy="23" r="10" class="wine"/><text x="44" y="29" class="text small">観劇</text><circle cx="220" cy="23" r="11" class="wine"/>
      <rect class="card" x="0" y="58" rx="10" width="252" height="46"/><circle cx="22" cy="81" r="10" class="blue"/><text x="44" y="87" class="text small">美術展</text><circle cx="220" cy="81" r="11" class="wine"/>
      <rect class="card" x="0" y="116" rx="10" width="252" height="46"/><circle cx="22" cy="139" r="10" class="gold"/><text x="44" y="145" class="text small">映画</text><circle cx="220" cy="139" r="11" fill="#d8d0ca"/>
      <rect class="card" x="0" y="174" rx="10" width="252" height="46"/><circle cx="22" cy="197" r="10" class="green"/><text x="44" y="203" class="text small">自作ジャンル</text><text x="202" y="203" class="text tiny muted">詳細</text>
    </g>
    <text x="0" y="600" class="text label">12. ジャンル管理</text>
  </g>
</svg>
